HIERARCHY
ROOT Hips
{
	OFFSET	0.00	0.00	0.00
	CHANNELS 6 Xposition Yposition Zposition Zrotation Xrotation Yrotation
	JOINT LeftUpLeg
	{
		OFFSET	 0.126116	-0.014019	-0.065224
		CHANNELS 3 Zrotation Xrotation Yrotation
		JOINT LeftLeg
		{
			OFFSET	 0.000000	 0.000000	 0.569914
			CHANNELS 3 Zrotation Xrotation Yrotation
			JOINT LeftFoot
			{
				OFFSET	 0.000000	 0.000000	 0.544423
				CHANNELS 3 Zrotation Xrotation Yrotation
				JOINT LeftToeBase
				{
					OFFSET	 0.000000	 0.000000	 0.207117
					CHANNELS 3 Zrotation Xrotation Yrotation
					End Site
					{
						OFFSET	 0.000000	 0.000000	 0.207117
					}
				}
			}
		}
	}
	JOINT RightUpLeg
	{
		OFFSET	-0.124023	-0.008373	-0.065224
		CHANNELS 3 Zrotation Xrotation Yrotation
		JOINT RightLeg
		{
			OFFSET	 0.000000	 0.000000	 0.570047
			CHANNELS 3 Zrotation Xrotation Yrotation
			JOINT RightFoot
			{
				OFFSET	 0.000000	 0.000000	 0.544354
				CHANNELS 3 Zrotation Xrotation Yrotation
				JOINT RightToeBase
				{
					OFFSET	 0.000000	 0.000000	 0.207540
					CHANNELS 3 Zrotation Xrotation Yrotation
					End Site
					{
						OFFSET	 0.000000	 0.000000	 0.207540
					}
				}
			}
		}
	}
	JOINT Spine
	{
		OFFSET	 0.000184	-0.007763	 0.117403
		CHANNELS 3 Zrotation Xrotation Yrotation
		JOINT Spine1
		{
			OFFSET	 0.000000	 0.000000	 0.137269
			CHANNELS 3 Zrotation Xrotation Yrotation
			JOINT Spine2
			{
				OFFSET	 0.000000	 0.000000	 0.156879
				CHANNELS 3 Zrotation Xrotation Yrotation
				JOINT LeftShoulder
				{
					OFFSET	 0.080501	-0.002496	 0.160144
					CHANNELS 3 Zrotation Xrotation Yrotation
					JOINT LeftArm
					{
						OFFSET	 0.000000	 0.000000	 0.164363
						CHANNELS 3 Zrotation Xrotation Yrotation
						JOINT LeftForeArm
						{
							OFFSET	 0.000000	 0.000000	 0.364576
							CHANNELS 3 Zrotation Xrotation Yrotation
							JOINT LeftHand
							{
								OFFSET	 0.000000	 0.000000	 0.360812
								CHANNELS 3 Zrotation Xrotation Yrotation
								JOINT LeftHandIndex1
								{
									OFFSET	 0.000000	 0.000000	 0.086006
									CHANNELS 3 Zrotation Xrotation Yrotation
									JOINT LeftHandIndex2
									{
										OFFSET	 0.000000	 0.000000	 0.047236
										CHANNELS 3 Zrotation Xrotation Yrotation
										JOINT LeftHandIndex3
										{
											OFFSET	-0.004284	-0.000551	 0.038166
											CHANNELS 3 Zrotation Xrotation Yrotation
											End Site
											{
												OFFSET	-0.004284	-0.000551	 0.038166
											}
										}
									}
								}
							}
						}
					}
				}
				JOINT Neck
				{
					OFFSET	 0.000000	 0.000000	 0.176489
					CHANNELS 3 Zrotation Xrotation Yrotation
					JOINT Head
					{
						OFFSET	 0.000000	-0.001747	 0.077940
						CHANNELS 3 Zrotation Xrotation Yrotation
						End Site
						{
							OFFSET	 0.000000	-0.001747	 0.077940
						}
					}
				}
				JOINT RightShoulder
				{
					OFFSET	-0.080363	 0.000306	 0.159706
					CHANNELS 3 Zrotation Xrotation Yrotation
					JOINT RightArm
					{
						OFFSET	 0.000000	 0.000000	 0.164196
						CHANNELS 3 Zrotation Xrotation Yrotation
						JOINT RightForeArm
						{
							OFFSET	 0.000000	 0.000000	 0.365611
							CHANNELS 3 Zrotation Xrotation Yrotation
							JOINT RightHand
							{
								OFFSET	 0.000000	 0.000000	 0.360648
								CHANNELS 3 Zrotation Xrotation Yrotation
								JOINT RightHandIndex1
								{
									OFFSET	 0.000000	 0.000000	 0.069977
									CHANNELS 3 Zrotation Xrotation Yrotation
									JOINT RightHandIndex2
									{
										OFFSET	 0.000000	 0.000000	 0.052305
										CHANNELS 3 Zrotation Xrotation Yrotation
										JOINT RightHandIndex3
										{
											OFFSET	 0.009002	-0.000782	 0.042196
											CHANNELS 3 Zrotation Xrotation Yrotation
											End Site
											{
												OFFSET	 0.009002	-0.000782	 0.042196
											}
										}
									}
								}
							}
						}
					}
				}
			}
		}
	}
}
MOTION
Frames:    12
Frame Time: 0.03333334
-0.058738	-2.229943	 1.238514	 4.037057	-1.816215	-3.595818	 1.191695	-7.463333	-171.353600	 0.281923	-28.712370	-0.026188	 22.983640	 71.074330	-25.760340	-2.371416	 31.272490	-0.062189	-3.361187	-28.693800	-175.088200	 10.200240	-53.366090	 8.825201	 8.667620	 64.326520	-4.217705	 2.357812	 33.170010	 0.107174	-7.755274	 8.164521	 1.309136	 1.092694	 5.496238	 2.539739	-6.725598	-6.074922	-3.641859	-93.759370	 58.858310	 175.782400	 19.747140	 40.004850	-37.648180	-13.528600	 2.926813	-12.489460	-0.083525	-30.630710	-5.612993	-4.869493	 19.239670	-2.786443	-3.891133	 21.349710	 2.212517	-4.808240	 5.545738	 0.146954	-0.128902	-5.011875	 0.157138	-8.609231	 0.287775	 2.104446	 89.835170	 61.578130	-179.873800	-20.784950	 53.071180	 7.604376	 10.773070	 3.424371	 28.660830	-6.516847	-16.634300	 0.248978	 6.305094	 26.056160	-0.579221	 1.719087	 46.011050	-6.844233	 0.337231	 25.099260	 3.665184
-0.061047	-2.276704	 1.239162	 5.636385	-0.827116	-3.631015	-0.347398	-5.988543	-171.620200	 1.107749	-27.917600	 0.353523	 22.541610	 71.720860	-26.007100	-2.368629	 31.742350	-0.072817	-7.080284	-32.382110	-175.209100	 10.951580	-47.375200	 8.671084	 15.544970	 72.412600	-13.152490	 2.358996	 32.996350	 0.103137	-7.970260	 7.636775	 1.029867	 1.156045	 5.012593	 2.915961	-7.493835	-5.950225	-3.896987	-94.090640	 59.018590	 175.056200	 19.196160	 37.083790	-39.872230	-14.755540	 2.925928	-12.463190	 0.348681	-34.531870	-7.756720	-4.864781	 19.364420	-2.795455	-3.875603	 21.548480	 2.196741	-4.805015	 5.583790	 0.144728	-0.042515	-5.102382	 0.226204	-9.062583	 0.290898	 1.747844	 89.722120	 61.718530	 179.856700	-19.850910	 54.346040	 4.780049	 10.046410	 3.195666	 28.659100	-7.894311	-18.923650	-0.577909	 6.278903	 23.735700	-0.549036	 2.020888	 43.582270	-7.113412	 0.763308	 23.226670	 3.449902
-0.062828	-2.321901	 1.237176	 6.412435	 0.211139	-4.008866	-1.074181	-4.443024	-171.566900	 1.415988	-26.935780	 0.481694	 22.763360	 72.766010	-26.458810	-2.365699	 32.214940	-0.083586	-8.917501	-35.336060	-175.215300	 11.253520	-40.293550	 7.834490	 23.627420	 74.326320	-23.399790	 2.361221	 32.663610	 0.095436	-7.493615	 6.868827	 1.075206	 1.225847	 5.078861	 3.276535	-8.060493	-5.974984	-4.167553	-94.358170	 58.951530	 174.496000	 17.904250	 34.342800	-41.761060	-15.596240	 2.914306	-12.423090	 1.336420	-38.579330	-7.040614	-4.847286	 19.784030	-2.817775	-3.852269	 21.845220	 2.173028	-4.791543	 5.742297	 0.135433	-0.006306	-5.178957	 0.310632	-9.485365	 0.309720	 1.643317	 89.566120	 61.909900	 179.480200	-18.842990	 55.425270	 2.137927	 8.656171	 2.761116	 29.094020	-10.035750	-21.058350	-2.090498	 6.239667	 21.326850	-0.617242	 2.247963	 41.593420	-7.313344	 1.282202	 20.861980	 3.203567
-0.065928	-2.387165	 1.231454	 6.747274	 0.717488	-4.555680	-1.520870	-1.103999	-171.520800	 1.643272	-25.687400	 0.559477	 22.389030	 73.590390	-26.174550	-2.350290	 34.435210	-0.135366	-7.597573	-36.852120	-174.363000	 10.430220	-29.851470	 5.622706	 45.760540	 76.312420	-46.974570	 2.344960	 34.909750	 0.148350	-6.710754	 6.359737	 1.371703	 1.341555	 5.818250	 3.453561	-8.553203	-6.138518	-4.369592	-94.513370	 58.875710	 174.177800	 15.337840	 31.600940	-43.935700	-16.345920	 2.882971	-12.344440	 2.237403	-43.176460	-5.372791	-4.831426	 20.361500	-2.897794	-3.808076	 22.401150	 2.128139	-4.754392	 6.177947	 0.109666	 0.057667	-5.331604	 0.349635	-9.861604	 0.348233	 1.414607	 89.402900	 62.015840	 179.083800	-16.755010	 56.473260	-1.494625	 6.412465	 2.023679	 29.150920	-13.321100	-24.097950	-5.362320	 6.179498	 17.830660	-0.711088	 2.687406	 37.295170	-7.692658	 2.026569	 17.313240	 2.882742
-0.071412	-2.449935	 1.222534	 7.125875	 0.651186	-4.543227	-2.200284	 2.408007	-172.120500	 2.146254	-25.263680	 0.765654	 19.148440	 72.705550	-23.079550	-2.301594	 39.686370	-0.267253	-7.143099	-39.036690	-174.372300	 10.225220	-24.109270	 4.532670	 31.076800	 71.056850	-32.882960	 2.337765	 35.790530	 0.169712	-6.392915	 6.503523	 1.297004	 1.441505	 6.143349	 3.522286	-8.894128	-6.170363	-4.527678	-94.527400	 59.125130	 174.106700	 13.064790	 30.339430	-45.569550	-16.287970	 2.834084	-12.243930	 2.237441	-47.784750	-5.179250	-4.868556	 20.573470	-3.176389	-3.771357	 22.856850	 2.090851	-4.701814	 6.789808	 0.072965	 0.159709	-5.459643	 0.298399	-9.993406	 0.537380	 1.096759	 89.356640	 61.744060	 178.982200	-14.716170	 56.764370	-5.081332	 4.756317	 1.451629	 29.114200	-16.012640	-27.180300	-8.284378	 6.179612	 14.694350	-0.507722	 2.976688	 34.098700	-7.935788	 2.650249	 14.206050	 2.645681
-0.080863	-2.522503	 1.209647	 7.693749	 0.038110	-3.436244	-2.259874	 6.493345	-174.318800	 1.348050	-26.257790	 0.440379	 13.145980	 67.897760	-15.385460	-2.112086	 51.093890	-0.626113	-4.874967	-42.315140	-174.547400	 6.400792	-23.650200	 2.884332	 10.360940	 59.786700	-7.181701	 2.339598	 35.571740	 0.164369	-6.215297	 6.668100	 0.199155	 1.537272	 7.194825	 3.578351	-9.269992	-6.209005	-4.850163	-94.437550	 59.319380	 174.267100	 11.275080	 29.223930	-47.374900	-16.508130	 2.765949	-12.099820	 2.950246	-50.824280	-3.963286	-4.895082	 20.763620	-3.392197	-3.749158	 23.129630	 2.068317	-4.619344	 7.738681	 0.014821	 0.286765	-5.462953	 0.248241	-10.031220	 0.861668	 1.385024	 89.326070	 61.404570	 178.922400	-13.076530	 56.632430	-8.231734	 3.331709	 0.877700	 29.482740	-18.906690	-30.113730	-10.550570	 6.290807	 11.436550	 0.133377	 3.174659	 31.722520	-8.098557	 3.208395	 11.331340	 2.459779
-0.090176	-2.603246	 1.200258	 9.388986	-1.042571	-2.206834	-2.035889	 11.260010	-177.294100	 0.305037	-27.039590	-0.021678	 7.703653	 55.023310	-6.656089	-1.585033	 64.484470	-1.337564	-3.379609	-41.451050	-174.928500	 6.995117	-23.345910	 3.088283	-0.198878	 46.449060	 6.303105	 2.340047	 35.516770	 0.163041	-6.650159	 7.034873	-0.853770	 1.068755	 7.985798	 3.095982	-9.724944	-6.024172	-4.934529	-94.326430	 59.147390	 174.533300	 10.643090	 27.942020	-48.374170	-16.491680	 2.681139	-11.922350	 4.793383	-50.548150	-2.524616	-4.862034	 21.090600	-3.307545	-3.708289	 23.626810	 2.026836	-4.537545	 8.666670	-0.043517	 0.391882	-5.369705	 0.271110	-10.168720	 1.400578	 1.742427	 89.119180	 61.181400	 178.445500	-11.956270	 56.235810	-9.373299	 3.368765	 0.882857	 28.479810	-19.719920	-32.317470	-10.297170	 6.356018	 9.148764	 0.445381	 3.356848	 29.388740	-8.245394	 3.549737	 9.534001	 2.358909
-0.102530	-2.709371	 1.191578	 10.328680	-1.732894	-0.498289	 5.087229	 16.187590	 175.489800	 1.608671	-27.979720	 0.589314	 3.308405	 32.170930	 5.838982	-1.541727	 65.149820	-1.389739	-6.989058	-37.693340	-179.946700	 6.285243	-25.053570	 2.994927	-0.611098	 40.983340	 8.667214	 2.367529	 31.667320	 0.072618	-6.200973	 7.167408	-1.864382	 0.057401	 7.336630	 1.835978	-10.088580	-5.181550	-4.607759	-94.098110	 59.884120	 174.913400	 11.200800	 28.357130	-47.921330	-14.600260	 2.535691	-11.648490	 7.146240	-48.979180	-2.329346	-4.766890	 21.452780	-2.856545	-3.624708	 24.623120	 1.942027	-4.468225	 9.442871	-0.093467	 0.345442	-5.372649	 0.175179	-10.482910	 1.968829	 1.898309	 88.996680	 60.266710	 178.214000	-11.196860	 55.196790	-10.634260	 4.672799	 1.133765	 28.420720	-18.618230	-34.141400	-9.132602	 6.399345	 8.976136	 0.620888	 3.377581	 29.113940	-8.261904	 3.669697	 8.895895	 2.325839
-0.113704	-2.808007	 1.189492	 8.169808	-2.526882	 0.760992	 13.268940	 14.990380	 169.030300	-1.299023	-36.264430	-0.977202	 7.528112	 30.574760	 3.665747	-2.377090	 30.253590	-0.039413	-6.143491	-34.566520	 177.095200	 5.328354	-28.644120	 2.926048	 0.240449	 44.977910	 9.312328	 2.374327	 30.484490	 0.046005	-3.060260	 7.833692	-2.849119	-0.153930	 5.421944	 1.863476	-9.845050	-3.872656	-4.695420	-94.017540	 59.620820	 175.128200	 11.802530	 29.459000	-45.584590	-13.054180	 2.383424	-11.341790	 9.575534	-46.983550	-0.181227	-4.698827	 22.357080	-2.728523	-3.549380	 25.498110	 1.865643	-4.383825	 10.375230	-0.154888	 0.221629	-5.381140	 0.144941	-10.787770	 2.047969	 2.066841	 89.206790	 60.306980	 178.689900	-11.628440	 55.225560	-9.891261	 5.764275	 1.438310	 26.142950	-17.468370	-34.242790	-8.051899	 6.399508	 11.158050	 0.609721	 3.191694	 31.510370	-8.112416	 3.439414	 10.117960	 2.390424
-0.124367	-2.912872	 1.194355	 6.252617	-3.266736	 1.344032	 14.145470	 9.757343	 167.121700	-4.383036	-50.553590	-3.660401	 9.772238	 44.914820	-0.860866	-2.380956	 29.496840	-0.022726	-5.304212	-31.191190	 175.601500	 4.722135	-33.956570	 3.067405	 1.044806	 53.030860	 9.279861	 2.374314	 30.486700	 0.046056	 0.641720	 8.495135	-3.285103	 0.029022	 2.991536	 2.020869	-9.527121	-2.262510	-4.415722	-93.883420	 59.503560	 175.435300	 13.290430	 31.514560	-42.377560	-11.027190	 2.191800	-10.941650	 11.005810	-42.912790	 1.098615	-4.603382	 23.638570	-2.533886	-3.466342	 26.438350	 1.781480	-4.249997	 11.825120	-0.253597	 0.077661	-5.254835	 0.015252	-11.028600	 2.091071	 1.914224	 89.492670	 60.094080	 179.345400	-13.251600	 55.189430	-7.241297	 7.651323	 1.804022	 24.382860	-16.335160	-32.973550	-7.463782	 6.374531	 14.333250	 0.465952	 2.953435	 34.367440	-7.916461	 3.004193	 12.392710	 2.524822
-0.130293	-3.012562	 1.205668	 4.835499	-3.791433	 1.109945	 9.069135	 1.776362	 171.296800	-3.290315	-65.343010	-3.311646	 9.090582	 59.378300	-2.960557	-2.376070	 30.443400	-0.043636	-4.613729	-27.231140	 175.148700	 3.369220	-37.474000	 2.513700	 1.954304	 59.871900	 9.561925	 2.374304	 30.489120	 0.046114	 4.482444	 8.970611	-3.106462	 0.380966	 2.425980	 2.148576	-9.363491	-1.611077	-4.162132	-93.743330	 59.835850	 175.696200	 15.205970	 34.287130	-39.897850	-7.977077	 1.976737	-10.486160	 12.297210	-34.658910	 1.931106	-4.577898	 24.285270	-2.588464	-3.399936	 27.172580	 1.714204	-4.150488	 12.880460	-0.327977	-0.090147	-5.061850	-0.063899	-11.301320	 2.059335	 1.818940	 89.592120	 59.755720	 179.574900	-15.798750	 53.676700	-1.344839	 9.630210	 2.130581	 25.979860	-15.333270	-29.452230	-6.034548	 6.376407	 16.969670	 0.437466	 2.729717	 36.846940	-7.728573	 2.532943	 14.799270	 2.687955
-0.134559	-3.126467	 1.223040	 3.178718	-3.768834	 0.959249	 6.819784	-10.549320	 175.234000	-1.966404	-75.162320	-2.241873	 6.539198	 71.486880	-0.873725	-2.371909	 31.188260	-0.060291	-3.952381	-21.310250	 174.796800	 1.466344	-37.617540	 1.358096	 2.665076	 65.930660	 10.165880	 2.372488	 30.816730	 0.053436	 9.147538	 9.002422	-3.238194	 1.089906	 2.480428	 2.675988	-9.195925	-1.525341	-4.285326	-93.537020	 60.213710	 176.102800	 17.762630	 38.322400	-36.652790	-4.067295	 1.711480	-9.900336	 14.440800	-24.390610	 2.530757	-4.536671	 25.223850	-2.647418	-3.343670	 27.782710	 1.657219	-4.099072	 13.418260	-0.366736	-0.296601	-4.833088	-0.144259	-11.569170	 1.770325	 2.259625	 89.793990	 59.951090	-179.973400	-18.395150	 50.868780	 7.728542	 11.759690	 2.529197	 25.920710	-14.427170	-21.723260	-3.201689	 6.377411	 19.223390	 0.402052	 2.517291	 39.034060	-7.547124	 2.118097	 16.864610	 2.846082
